<?xml version="1.0" encoding="UTF-8"?>
<svg xmlns="http://www.w3.org/2000/svg" viewBox="0 0 800 800">
  <rect width="800" height="800" rx="96" ry="96" fill="#C6102E"/>
  <svg x="100" y="100" width="600" height="600" viewBox="0 0 604.88 608" preserveAspectRatio="xMidYMid meet">
    <defs>
    <style>
      .cls-1 {
        fill: #fff;
      }
    </style>
  </defs>
  <g id="_8th_copy" data-name="8th copy">
    <g id="Layer_9_copy_5" data-name="Layer 9 copy 5">
      <g>
        <path class="cls-1" d="M340.51,366.49c-10.82,9.4-24.4,14.11-37.97,14.11s-27.16-4.71-37.99-14.12c-10.1-8.78-23.04-13.61-36.43-13.61h-70.73l-9.66,19.79-.24,2.92c15.82,35.85,35.64,69.87,60.94,99.85,1.19,1.01,2.49,1.22,3.99,1.4,10.74,1.26,24.86.48,35.97.84,23.04.74,45.09,1.49,68.19-.87,3.4-.35,25.24-2.97,26.26-3.82,14.45-32.99,31.35-64.94,51.99-94.49l-15.74-25.63h-2.15c-13.38,0-26.32,4.84-36.44,13.62Z"/>
        <path class="cls-1" d="M404.06,533.91c-23.54-13.88-43.99-31.73-60.68-53.36-26.86,3.21-53.57,5.91-80.69,5.28-9.11-.21-18.7-1.49-27.8-1.82-8.11-.29-16.18.46-24.22-.93l-1.79.94c-12.58,17.14-26.35,33.37-41.74,48.02,9.58,9.72,18.27,20.36,28.19,29.7,11.63,10.94,26.24,22.8,39.21,32.17,13.57,9.81,16.82,10.18,33.7,12.09,21.83,2.46,47.13,2.89,68.91,0,3.67-.49,8.54-.9,11.78-2.58,4.77-2.47,19.85-18.5,24.25-23.33,12.51-13.71,23.8-28.85,30.9-46.16Z"/>
        <path class="cls-1" d="M590.25,352.87h-75.11l-11.3,23c2.5,25.75,5.1,50.32,3.53,76.25-.23,3.77-3.02,15.6-.9,17.98,8.5,4.45,16.76,9.45,25.82,12.78,3.25,1.2,11.26,4.75,13.69,2.5,30.9-41.42,52.13-90.81,58.63-142.3-2.26,5.73-7.83,9.79-14.36,9.79Z"/>
        <path class="cls-1" d="M522.04,485.95c-3.33-1.48-18.29-10.49-20.02-9.63-25.97,25.32-56.2,45.09-90.48,57.28-10.11,26.83-29.95,47.9-49.6,68,63.98-11.91,126.98-48.5,169.25-97.84,1.28-1.5,9.33-10.57,8.51-11.67-6.06-1.4-12-3.62-17.66-6.14Z"/>
        <path class="cls-1" d="M172.93,548.65c-4.23-4.44-10.8-14.25-14.83-17.49-4.43-3.56-15.26-7.98-20.89-11.43-22.98-14.08-40.12-27.57-60.26-45.23-2.44-2.14-4.95-4.26-7.36-6.45-6.56,2.48-14.44-1.08-20.56-.21-1.23.17-1.56-.51-1.32,1.33,42.14,63.88,108.14,112.26,183.14,129.74-20.99-14.99-40.15-31.57-57.92-50.26Z"/>
        <path class="cls-1" d="M0,341.69c.33,3.21,1.08,7.57,1.27,8.72,6.37,38.58,20.71,77.21,41.63,110.1l22.76,1.03c-.89-7.3-3.59-14.2-5.11-21.37-3.14-14.85-6.06-32.16-5.7-47.34.12-5.16,2.92-17.22,2.24-21.17-.51-2.94-6.75-13.66-9.43-18.79H14.83c-7.05,0-12.98-4.73-14.83-11.18Z"/>
        <polygon class="cls-1" points="401.08 374.27 452.12 369.94 498.7 370.01 507.1 352.87 387.34 352.87 401.08 374.27"/>
        <path class="cls-1" d="M62.68,366.22c23.84,2.19,50.48,6.71,74.39,4.7,1.72-.15,3.77-.04,4.95-1.57l7.44-16.47H55.88l6.8,13.34Z"/>
      </g>
    </g>
    <g>
      <path class="cls-1" d="M458.95,268.69h-12.36c-2.39,0-4.33-1.94-4.33-4.33V119.01c0-1.22.51-2.38,1.42-3.2l11.58-10.52c.9-.81,1.41-1.97,1.42-3.18l.17-26.99c.01-1.91-1.22-3.6-3.05-4.16l-27.03-8.39c-1.8-.56-3.03-2.21-3.05-4.1h0c-.02-2.86,2.68-4.96,5.44-4.22,14.02,3.73,27.9,8.1,41.01,14.35,1.49.71,2.43,2.21,2.45,3.86l.33,32.4c.01,1.1-.4,2.16-1.14,2.97l-7.38,8.03c-.73.8-1.14,1.85-1.14,2.93v145.58c0,2.39-1.94,4.33-4.33,4.33Z"/>
      <path class="cls-1" d="M429.57,67.37c5.29,1.3,12.79,3.66,16.92,5.25,1.75.67,2.94,2.31,3.04,4.18.34,6.28.29,20.3.06,22.56-.45,4.58-5.75,7.92-9.77,11.24-1.81,1.5-4.44,1.46-6.2-.09l-8.34-7.35c-1.03-.9-1.61-2.21-1.61-3.57v-27.58c0-3.09,2.9-5.37,5.9-4.63Z"/>
      <path class="cls-1" d="M426.09,266.38V118.07c0-.63-.25-1.23-.69-1.68l-8.31-8.31c-.44-.44-.69-1.05-.69-1.68v-20.8c0-1.73,1.78-2.87,3.35-2.16h0c.83.38,1.37,1.21,1.39,2.12l.26,19.02c0,.64.28,1.26.75,1.7l7.32,6.85c.46.43.73,1.02.75,1.65,1.74,50.09.18,100.79.77,151.11.11,2.08-.88,2.7-2.28,2.84s-2.61-.96-2.61-2.36Z"/>
      <path class="cls-1" d="M479.94,82.65h0c.69.36,1.11,1.1,1.05,1.88-.47,6.79.97,14.89.12,21.28-.56,4.21-6.99,6.95-8.75,10.88-.11.25-.17.53-.17.8l.02,148.4c.12,2.37-1.17,2.84-2.88,2.87-1.11.02-2.01-.88-2.01-1.98V117.91c0-.53.21-1.03.58-1.4l8.54-8.54c.37-.37.58-.88.58-1.4v-22.16c0-1.5,1.59-2.45,2.91-1.75Z"/>
    </g>
    <g id="Layer_16_copy_2" data-name="Layer 16 copy 2">
      <g>
        <polygon class="cls-1" points="90.03 213.94 82.48 213.94 82.48 231.97 94.45 231.97 92.37 244.51 87.69 244.51 87.69 252.34 99.4 252.34 105.65 224.39 90.03 224.39 90.03 213.94"/>
        <polygon class="cls-1" points="122.3 231.97 124.39 231.97 124.39 240.07 117.1 224.39 107.21 224.39 107.21 231.97 111.11 231.97 116.32 244.51 107.21 244.51 107.21 252.34 133.5 252.34 133.5 224.39 122.3 224.39 122.3 231.97"/>
        <polygon class="cls-1" points="181.12 237.71 189.97 237.71 189.97 231.97 194.4 231.97 194.4 244.51 181.12 244.51 181.12 252.34 203.25 252.34 203.25 224.39 181.12 224.39 181.12 237.71"/>
        <rect class="cls-1" x="207.41" y="237.71" width="9.11" height="14.63"/>
        <polygon class="cls-1" points="207.41 231.97 219.39 231.97 219.39 252.34 227.71 252.34 227.71 224.39 207.41 224.39 207.41 231.97"/>
        <path class="cls-1" d="M240.09,126.19c-9.13-61.71-88.97-80.53-134.45-32.38l-13.7-2.01c-20.93-8.69-15.6,19.3,1.43,5.73l49.96,14.61,8.56,33.24-20.84,59.03-34.25-34.1c-6.67-7.36-20.2,4.01-11.22,12.04l70.99,55.66-12.2,14.34,13.81,12.56,20.35-22.7-.08-22.61c41.4-15.04,67.47-42.36,61.66-93.42ZM112.25,95.04c35.76-32.75,96.91-23.4,110.41,31.06,9.78,45.05-10.86,74.42-36.08,83.24l-13.46-64.86-8.08-1.08,6.46-7.03,7.54-17.3,37.15-3.24-29.62-25.41c.74-7.51-7.1-9.03-10.43-5.65-3.93,3.23-.95,11.93,5.58,9.43l12.01,14.02-25.5-3.92-3.91-6.45c1.91-2.84.87-15.74-.91-15.54-4.49-2.5-9.69-2.9-15.08-2.7-1.81,1.41-2.71,3.27-2.73,5.57l2.73.37,1.08,10.88c1.79,1.19,3.59,1.71,5.38,1.55l1.71,5-44.28-7.95ZM160.44,233.65l-25.98-25.79,27.4-44.99,19.98,49-5.43,2.58-15.99,19.2Z"/>
        <polygon class="cls-1" points="150.93 207.66 154.06 207.66 154.06 224.39 162.91 224.39 162.91 199.83 150.93 199.83 150.93 207.66"/>
      </g>
    </g>
    <g>
      <path class="cls-1" d="M38.92,156.97V38.53h203.25c22.71,0,41.2,18.49,41.2,41.2v77.24h38.53v-77.24c0-22.71,18.48-41.2,41.19-41.2h203.26v118.44h38.53V19.27c0-10.64-8.62-19.27-19.27-19.27h-222.52c-24.15,0-45.82,10.8-60.46,27.81C288,10.8,266.32,0,242.17,0H19.66C9.01,0,.39,8.63.39,19.27v137.7h38.53Z"/>
      <path class="cls-1" d="M566.35,93.9v189.14h-190.53c-19.52,0-38.45,6.41-53.92,18.18V93.9h-38.53v207.32c-15.46-11.76-34.39-18.18-53.92-18.18H38.92V93.9H.39v208.4c0,10.64,8.62,19.27,19.27,19.27h209.79c12.18,0,23.96,4.4,33.16,12.4,10.81,9.39,24.22,14.32,37.77,14.81.74.09,1.5.14,2.26.14s1.52-.05,2.26-.14c13.54-.5,26.96-5.43,37.77-14.83,9.2-7.99,20.97-12.39,33.16-12.39h209.79c10.64,0,19.27-8.63,19.27-19.27V93.9h-38.53Z"/>
    </g>
  </g>
  </svg>
</svg>
